<svg xmlns="http://www.w3.org/2000/svg" fill="none" viewBox="0 0 247 47"><path fill="#B4D2E4" d="M72.933 11.947c-2.291-1.454-4.867-1.572-7.444-1.465-1.133.052-2.268.317-3.39.594-3.279.812-5.914 2.556-7.894 5.218-.51-1.654-1.25-3.196-2.48-4.47-1.427-1.478-3.117-2.325-5.204-2.081-1.277.147-2.41.675-3.377 1.509-.614.524-1.173 1.134-1.774 1.67-.765.697-1.519.701-2.31.03-.362-.306-.689-.64-1.051-.946-1.593-1.33-3.396-1.78-5.425-1.365-1.612.33-2.965 1.135-4.19 2.221-.507.443-.975.935-1.417 1.437a11.916 11.916 0 0 0-3.066-1.624c-3.152-1.154-6.445-1.508-9.639-1.391-2.154.146-4.115.433-6.025.98-2.408.689-4.65 1.707-6.454 3.53C.693 16.91.01 18.244 0 19.852c-.01 1.157.344 2.23 1.071 3.106.635.755 1.351 1.431 2.068 2.12.666.653.916 1.392.582 2.29a9.338 9.338 0 0 1-.372.888C1.564 31.774.542 35.462.872 39.476c.136 1.576.55 3.047 1.362 4.358 1.409 2.27 3.458 3.36 6.077 3.137 1.992-.175 3.775-1.016 5.349-2.286 3.148-2.54 5.308-5.751 6.683-9.522l.007.125c.136.91.223 1.822.408 2.716.47 2.272 1.49 4.237 3.357 5.614 2.254 1.67 4.675 1.671 7.142.465.89-.44 1.634-1.085 2.297-1.838.372-.423.756-.86 1.181-1.223.59-.498 1.074-.462 1.635.072.247.237.46.514.66.791.629.87 1.28 1.7 2.166 2.328 1.375.978 2.909 1.457 4.569 1.313 2.115-.182 3.756-1.355 5.075-2.987a17.987 17.987 0 0 0 1.466-2.13 8.652 8.652 0 0 0 3.188 2.96c2.382 1.31 4.986 1.704 7.666 1.691 1.68-.006 3.303-.374 4.863-.99 2.613-1.026 4.697-2.677 5.746-5.424.908-2.375.528-4.816-1.438-6.427-.297-.247-.62-.492-.906-.765-.729-.675-.858-1.233-.462-2.122.165-.386.38-.75.581-1.126.773-1.463.963-2.956.31-4.527a7.948 7.948 0 0 1-.322-.912c-.245-.866-.044-1.492.642-2.046.248-.203.524-.369.785-.56.571-.396 1.144-.768 1.69-1.188.723-.556 1.353-1.232 1.778-2.06.445-.892.63-1.82.316-2.806-.313-.975-.956-1.68-1.776-2.212l-.034.052ZM18.587 25.161c-.414.099-.864.237-1.209.483-.701.504-.638 1.217.092 1.69.205.127.422.253.65.354 1 .433 1.334 1.369 1.237 2.304-.152 1.516-.53 2.982-1.057 4.406-1.076 2.913-2.679 5.478-4.909 7.626-1.092 1.054-2.343 1.891-3.774 2.386-2.874.992-5.12-.326-6.083-3.023-.131-.37-.263-.752-.334-1.137-.09-.535-.12-1.087-.184-1.786-.087-3.413.884-6.683 2.645-9.735.541-.948 1.405-1.423 2.446-1.595.245-.04.489-.09.707-.178.758-.357.882-1.03.27-1.61-.26-.25-.604-.432-.933-.576-.835-.355-1.691-.646-2.526-1.014-.887-.39-1.682-.923-2.338-1.64-1.354-1.493-1.282-3.332.23-4.849 1.135-1.144 2.555-1.84 4.02-2.4 2.602-.988 5.314-1.33 8.069-1.334 2.236 0 4.437.252 6.586.923 1.22.383 2.383.87 3.412 1.629.154.104.308.209.45.326.466.388.861.831 1.136 1.343.234.44.385.933.391 1.51.007.805-.291 1.45-.753 2.053-.646.828-1.454 1.427-2.328 1.928-.396.223-.804.435-1.226.634-.482.216-.98.382-1.466.535-1.045.31-2.122.51-3.183.758l-.038-.01Zm32.168 8.765c-.299.858-.61 1.705-.974 2.53-.208.489-.429.966-.65 1.443-.443.93-.938 1.837-1.559 2.676-.784 1.037-1.672 1.954-2.92 2.413-1.852.695-3.58.064-4.846-1.184-1.123-1.105-1.608-2.522-1.816-4.068-.282-2.02-.12-4.014.142-6.026.05-.417.04-.844-.008-1.268-.051-.487-.378-.82-.777-.886-.424-.064-.719.191-.9.503a4.437 4.437 0 0 0-.446 1.093c-.675 2.576-1.59 5.065-2.693 7.488-.442.968-1.064 1.794-1.815 2.515-2.395 2.296-5.82 1.81-7.556-1.044-.815-1.349-1.168-2.836-1.29-4.4l-.037-.676c-.112-2.959.261-5.856.957-8.722.021-.064.043-.128.051-.204 0 0 .025-.002.036-.015.314-.13.627-.286.927-.442a12.797 12.797 0 0 0 3.032-1.954c1.003-.873 1.861-1.89 2.172-3.213.434-1.783-.047-3.352-1.158-4.709.64-.727 1.332-1.394 2.154-1.955.81-.561 1.677-.962 2.635-1.066 1.524-.161 2.777.396 3.757 1.597.808.998 1.144 2.185 1.287 3.433.176 1.422.03 2.837-.24 4.234-.076.394-.117.786-.157 1.178-.015.189-.003.402.032.588.072.423.264.764.713.852.412.077.722-.141.926-.48.204-.337.394-.7.484-1.082.201-.84.427-1.695.466-2.564.105-2.154.932-3.985 2.148-5.699.55-.772 1.167-1.473 1.94-2.019 1.82-1.296 3.908-1.074 5.432.599 1.117 1.218 1.74 2.69 2.148 4.276.11.42.17.844.242 1.267.277 1.68.27 3.364.152 5.055-.022.265-.032.529-.055.794a37.087 37.087 0 0 1-1.928 9.053l-.008.089ZM71.85 16.568c-.49.518-1.02 1-1.616 1.398-1.764 1.18-3.73 1.843-5.796 2.236-.403.086-.82.147-1.22.283-.267.09-.543.244-.754.444-.47.454-.412 1.066.184 1.347.431.201.93.286 1.404.36.847.128 1.694.269 2.438.755 1.434.937 1.782 2.563.861 4.022-.682 1.08-1.724 1.68-2.849 2.133-1.22.495-2.48.73-3.785.816-.591.033-1.168.103-1.742.224a1.909 1.909 0 0 0-.842.424c-.509.418-.446 1.118.15 1.399.33.157.706.249 1.053.267 1.027.03 2.06-.053 3.076.002a51.26 51.26 0 0 1 4.16.369c.858.115 1.654.447 2.306 1.076.835.807 1.148 1.782.962 2.91-.28 1.675-1.212 2.92-2.544 3.862-1.403 1.01-2.98 1.563-4.682 1.822a13.757 13.757 0 0 1-7.072-.77c-1.981-.755-3.29-2.088-4.043-3.905 0-.012.01-.038.022-.051 1.826-4.123 2.962-8.434 3.36-12.928.168-1.894.213-3.794-.013-5.678 1.217-2.141 2.775-3.938 4.987-5.067a13.836 13.836 0 0 1 6.08-1.537c1.364-.152 2.802-.07 4.197.38.466.149.922.362 1.332.628 1.063.681 1.052 2.064.375 2.793l.011-.014ZM244.666 16.023c-.29-.335-.616-.643-.882-.993-.611-.782-.651-1.508-.127-2.33.239-.377.529-.72.781-1.086 1.466-2.118 1.812-4.386.755-6.776-.79-1.79-2.248-2.926-3.96-3.734-2.003-.942-4.119-1.225-6.396-1.06-1.417.056-2.872.339-4.305.796-4.105 1.312-7.519 3.716-10.463 6.834-.061-.437-.109-.874-.194-1.296-.264-1.442-.818-2.768-1.781-3.882C216.631.807 214.82.231 212.667.842c-1.727.5-3.141 1.534-4.317 2.857-.931 1.057-1.745 2.209-2.56 3.36-1.089 1.556-2.008 1.005-2.625-.116-.781-1.4-1.667-2.695-2.92-3.705-1.822-1.467-3.843-2.044-6.111-1.263-1.346.465-2.474 1.295-3.443 2.342-.969 1.035-1.784 2.174-2.522 3.37-.04-.06-.069-.133-.109-.194-1.429-2.18-3.578-2.864-5.91-1.438a8.434 8.434 0 0 0-2.223 2.047c-.727.946-1.327 1.947-1.863 2.995-2.258-2.21-5.735-2.755-9.147-4.158-3.324-1.37-7.018-2.268-9.392-1.858-3.281.562-3.796 1.76-4.27 5.982-2.942-2.284-6.983-2.76-10.426-4.048-2.472-.928-5.77-2.049-7.586-.678-.617.462-1.289 1.292-1.923 2.345-1.559-2.073-3.676-2.846-6.241-2.525-1.755.212-3.271.963-4.63 2.095-.343.283-.66.59-1.016.849-.809.573-1.442.533-2.193-.103-.414-.353-.794-.747-1.208-1.088-2.356-1.965-5.443-2.168-7.86-.034a13.21 13.21 0 0 0-2.107 2.368c-.287.405-.561.81-.81 1.226a9.565 9.565 0 0 0-1.505-1.322c-2.007-1.457-4.285-1.995-6.92-1.821-2.441.087-4.797 1.062-6.984 2.429-4.301 2.68-7.636 6.335-10.225 10.727-1.902 3.197-3.22 6.651-4.212 10.225-.402 1.455-.607 2.91-.475 4.424.19 2.124.907 3.956 2.588 5.318 1.538 1.245 3.255 1.701 5.162 1.104 1.628-.519 2.777-1.652 3.508-3.2 1.01-2.092 1.706-4.28 1.987-6.607.07-.544.163-1.09.333-1.602.243-.742.89-1.13 1.672-1.049.46.05.931.086 1.381.173 1.747.317 3.486.256 5.165-.215a17.078 17.078 0 0 0 3.853-1.612c.086.674.173 1.36.296 2.031.393 1.988 1.16 3.817 2.514 5.323 2.38 2.63 5.389 3.892 8.859 4.074 2.316.108 4.508-.48 6.604-1.465 3.12-1.458 5.565-3.756 7.639-6.499 0 0-.001-.012.011-.026.057.361.114.735.208 1.094.582 2.291 1.71 4.175 3.824 5.325 1.54.83 3.196 1.063 4.919.941.516-.054 1.034-.07 1.535-.174a19.071 19.071 0 0 0 1.853-.457 24.267 24.267 0 0 0 9.713-5.623 7.6 7.6 0 0 0 2.268 3.076c1.888 1.54 4.184 1.95 6.495 1.745.504-.054 1.019-.12 1.532-.225 1.211-.232 2.358-.485 3.532-.928a24.41 24.41 0 0 0 8.16-5.108c.072.398.118.797.214 1.194.321 1.351.773 2.632 1.659 3.7.927 1.13 2.087 1.793 3.597 1.62.725-.08 1.364-.366 1.973-.765 1.599-1.032 2.729-2.503 3.615-4.161.147-.26.255-.53.39-.788.173.241.335.496.546.723.987 1.112 2.176 1.85 3.687 1.915 1.647.07 3.019-.597 4.089-1.826.709-.819 1.288-1.744 1.958-2.61.969-1.261 1.739-.965 2.384.003.351.533.678 1.093 1.052 1.612 1.909 2.606 4.479 3.981 7.677 3.939 1.802-.026 3.448-.672 4.907-1.771 1.602-1.221 2.762-2.82 3.704-4.581.034-.052.055-.116.077-.168 1.762 2.4 4.152 3.862 7.053 4.49 2.926.639 5.647.247 8.035-1.722.201-.175.453-.302.681-.44.659-.364 1.315-.338 1.943.066.332.207.642.453.963.674.95.65 1.963 1.108 3.128 1.168 1.747.09 3.217-.596 4.49-1.723 2.522-2.227 3.96-5.085 4.495-8.42.473-2.89-.271-5.424-2.193-7.589l-.003-.063Zm-140.105 9.744c-1.284.927-2.791 1.615-4.52 2.077-.609.16-1.248.22-1.872.331-2.492.078-4.75-.561-6.75-2.107a6.79 6.79 0 0 0-.783-.546c-.345-.206-.716-.223-1.05-.003-.37.247-.421.664-.375 1.063.042.312.146.633.26.928.743 2.056.82 4.15.304 6.239-.355 1.414-.86 2.8-1.392 4.161-.38.964-1.028 1.767-1.98 2.21-1.542.715-3.382.052-4.395-1.536-.77-1.2-.978-2.533-.894-3.932.109-1.853.605-3.627 1.278-5.336 1.16-2.967 2.46-5.855 4.243-8.518 2.547-3.812 5.778-6.87 9.84-8.972 2.078-1.084 4.274-1.597 6.603-1.251 1.781.264 3.319 1.044 4.541 2.394.171.18.317.372.451.566.641.868 1.013 1.802 1.129 2.8.109.873.035 1.782-.209 2.738a12.753 12.753 0 0 1-1.832 4.023 10.8 10.8 0 0 1-2.561 2.657l-.036.014Zm25.777 2.354c-1.225 2.004-2.668 3.856-4.42 5.488-2.081 1.951-4.488 3.343-7.294 3.778-3.712.573-7.069-.268-9.641-3.263-1.465-1.714-2.17-3.76-2.194-5.115a35.983 35.983 0 0 1-.018-2.135c1.628-1.41 2.913-3.217 3.79-5.49.639-1.657 1.076-3.377.88-5.175a8.14 8.14 0 0 0-.78-2.745c.328-.559.642-1.13 1.008-1.678a10.99 10.99 0 0 1 1.414-1.713c1.522-1.543 3.547-1.795 5.226-.671 1.181.8 1.766 2.011 1.915 3.385.119 1.048.029 2.134.013 3.19-.034 1.861-.456 3.644-1.028 5.397-.116.358-.131.761-.159 1.152v.013c-.017.365.137.695.503.838.353.131.719.047.951-.23.291-.33.555-.696.731-1.096.56-1.288.832-2.647 1.091-4.019.239-1.27.305-2.567.806-3.789.623-1.505 1.373-2.916 2.546-4.063 1.314-1.292 2.884-1.946 4.73-1.85 1.549.077 2.7.803 3.454 2.168.11.207.196.416.281.625.495 1.14.685 2.36.606 3.621-.185 3.189-.995 6.237-2.219 9.158-.612 1.48-1.364 2.866-2.18 4.206l-.012.013Zm23.639-.152a27.012 27.012 0 0 1-2.018 2.413c-2.103 2.217-4.552 3.975-7.426 5.193-1.679.71-3.404 1.247-5.62 1.397-.504.053-1.383.002-2.238-.264-2.036-.639-3.181-2.144-3.784-4.133-.363-1.223-.443-2.463-.387-3.71 1.81-3.054 3.074-6.379 3.87-9.916.497-2.214.795-4.454.374-6.73-.054-.323-.133-.633-.212-.955.954-2.654 2.819-3.802 6.098-2.806 2.613.782 5.154 1.845 7.725 2.768 1.487.544 3.062 1.109 4.212 2.25.13.118.213.277.331.409.738.85 1.238 1.864 1.52 2.954.125.483.226.967.278 1.467.357 3.384-.516 6.41-2.381 9.142l-.342.509v.012Zm20.242.769c-3.367 3.946-8.261 6.42-13.444 6.763l.013-.001c-2.345.27-4.936-1.016-5.861-3.25a7.826 7.826 0 0 1-.408-1.372 30.331 30.331 0 0 0 1.547-1.984c2.511-3.57 3.444-7.543 2.688-11.885a9.76 9.76 0 0 0-1.679-4.05c.304-2.129.607-3.829 1.732-4.948 1.887-1.877 8.033.264 10.998 1.39 3.04 1.16 5.67 2.03 7.187 4.03.6.795 1.036 1.763 1.252 3.007.126.722.182 1.535.159 2.466-.085 2.291-.816 4.531-1.905 6.54-.022.039-.044.09-.067.13a19.622 19.622 0 0 1-2.199 3.176l-.013-.012Zm12.43-4.52c-.162.65-.337 1.288-.525 1.927a29.376 29.376 0 0 1-1.38 3.696 24.322 24.322 0 0 1-1.295 2.535c-.543.922-1.2 1.776-2.016 2.45-.366.31-.835.55-1.285.676-.938.241-1.664-.158-2.238-.93-.693-.94-.964-2.056-1.187-3.186a17.815 17.815 0 0 1-.255-1.97c3.068-3.78 4.799-8.512 3.902-13.638a9.735 9.735 0 0 0-.85-2.678c.551-1.212 1.204-2.38 2.037-3.419a7.47 7.47 0 0 1 1.432-1.375c1.224-.898 2.525-.594 3.35.704.217.352.397.718.529 1.1.202.53.342 1.062.435 1.622.144.833.238 1.657.319 2.23l.008.15c.101 3.663-.228 6.923-.992 10.132l.011-.026Zm28.163 2.822s-.056.117-.089.181c-.81 1.918-1.901 3.663-3.519 5.035-1.086.928-2.341 1.476-3.745 1.556-1.737.097-3.323-.441-4.684-1.608-1.672-1.439-2.564-3.298-2.989-5.435-.357-1.776-.75-3.55-.996-5.346-.186-1.371-.176-2.779-.277-4.167a8.863 8.863 0 0 0-.248-1.607c-.096-.397-.417-.63-.814-.658-.359-.017-.642.238-.737.532-.183.5-.351 1.05-.359 1.578-.02.993.084 1.992.138 2.982.035.651.046 1.304.106 1.941.108 1.087-.082 2.128-.421 3.152-.682 2.01-1.565 3.933-2.845 5.613a8.393 8.393 0 0 1-.898.98c-1.266 1.252-3.082 1.028-4.239-.251-.46-.502-.8-1.073-1.08-1.673 2.029-4.938 2.879-10.2 2.716-15.92-.085-.648-.188-1.634-.366-2.617-.069-.36-.15-.72-.231-1.067.37-.7.765-1.387 1.199-2.04.799-1.2 1.689-2.319 2.853-3.189 2.099-1.6 4.216-1.292 6.04.426 1.368 1.305 2.137 2.945 2.631 4.752.324 1.175.501 2.383.543 3.612.028.514.106 1.037.208 1.546.089.498.382.896.882.993.524.096.926-.228 1.138-.654a9.496 9.496 0 0 0 .634-1.745c.676-2.55 1.733-4.909 3.26-7.055.952-1.348 2.034-2.565 3.512-3.339.697-.353 1.41-.645 2.23-.553 1.132.125 1.894.735 2.488 1.657.715 1.115 1.018 2.367 1.114 3.668.046.625.067 1.24.089 1.854a36.23 36.23 0 0 1-.133 4.367c-.272 3.168-.931 6.258-1.927 9.292a43.388 43.388 0 0 1-1.172 3.207h-.012Zm29.869-3.718c-.404 2.56-1.507 4.77-3.31 6.606-2.036 2.074-5.017 1.79-6.821-.483-.465-.59-.9-1.33-1.622-1.416-.722-.097-1.343.516-1.78 1.106-.898 1.218-2.192 2.17-3.626 2.616-1.956.613-3.889.282-5.735-.493-2.099-.887-3.609-2.297-4.61-4.112a37.01 37.01 0 0 0 1.844-5.833c.79-3.424 1.292-6.894 1.297-10.425.059-.066.104-.144.162-.21a25.071 25.071 0 0 1 5.608-5.24c2.085-1.412 4.369-2.345 6.812-2.86.72-.153 1.445-.232 2.168-.348 2.218-.1 4.302.273 6.208 1.472 1.101.704 1.87 1.666 2.176 2.968.31 1.39-.105 2.606-.911 3.694-.978 1.324-2.366 1.704-3.914 1.628-1.239-.068-2.482-.2-3.732-.23-2.549-.082-4.829.7-6.802 2.356-.815.687-1.487 1.504-1.901 2.52-.598 1.503-.292 3.044.869 4.172.875.855 2.486 2.07 3.765 1.973.481-.027.981-.357 1.066-.839.085-.482-.26-.927-.635-1.233-.802-.658-1.855-.712-2.472-1.594-.602-.858-.459-1.858.177-2.66.67-.855 1.565-1.42 2.556-1.84 1.981-.829 4.007-.83 6.04-.253 1.707.494 3.304 1.233 4.689 2.386 2.045 1.706 2.904 3.87 2.481 6.531l-.047.04Z"/><path fill="#B4D2E4" d="M166.904 19.188c-1.018-.08-2.022.541-2.567 1.426-.431.703-.608 1.542-.599 2.383l.034.626c.078.737.318 1.515.886 1.973.75.598 1.892.484 2.69-.064 1.967-1.317 2.832-6.064-.444-6.344ZM143.362 21.13c-.643.891-.959 1.889-1.098 2.965a6.054 6.054 0 0 0-.038.441c-.05 1.812 1.517 2.905 3.145 2.172 1.17-.518 1.747-1.505 1.914-2.733.149-1.127-.105-2.155-.918-3.014-.681-.715-2.258-.852-2.993.169h-.012ZM99.409 16.472c-1.17.079-2.42 1.154-2.738 2.366-.264 1.032.075 2.043.897 2.625.836.594 1.761.58 2.653-.074.784-.572 1.309-1.355 1.416-2.341.186-1.581-.975-2.696-2.228-2.576Z"/></svg>